<svg xmlns="http://www.w3.org/2000/svg" width="800" height="800" fill="none" viewBox="0 0 800 800" id="moon">
  <mask id="path-1-outside-1_207_551" width="619" height="624" x="96" y="91.719" fill="#000" maskUnits="userSpaceOnUse">
    <rect width="619" height="624" x="96" y="91.719" fill="#fff"></rect>
    <path fill-rule="evenodd" d="M111.739 507.176C107.979 497.544 120.361 490.15 128.444 496.596C171.92 531.272 227.18 552.025 287.331 552.025C427.394 552.025 540.937 439.503 540.937 300.701C540.937 232.746 513.721 171.089 469.502 125.853C462.257 118.442 468.419 105.313 478.4 108.101C606.273 143.814 700 260.266 700 398.412C700 564.974 563.748 700 395.674 700C266.294 700 155.772 619.991 111.739 507.176Z" clip-rule="evenodd"></path>
  </mask>
  <path fill="#31393C" d="M128.444 496.596L119.091 508.323L128.444 496.596ZM111.739 507.176L125.712 501.722L111.739 507.176ZM137.797 484.87C178.702 517.494 230.687 537.025 287.331 537.025V567.025C223.673 567.025 165.138 545.049 119.091 508.323L137.797 484.87ZM287.331 537.025C419.237 537.025 525.937 431.092 525.937 300.701H555.937C555.937 447.915 435.55 567.025 287.331 567.025V537.025ZM525.937 300.701C525.937 236.839 500.379 178.899 458.775 136.338L480.228 115.368C527.062 163.279 555.937 228.652 555.937 300.701H525.937ZM685 398.412C685 267.251 596.005 156.521 474.365 122.548L482.435 93.6536C616.542 131.108 715 253.281 715 398.412H685ZM395.674 685C555.592 685 685 556.563 685 398.412H715C715 573.386 571.905 715 395.674 715V685ZM125.712 501.722C167.549 608.911 272.613 685 395.674 685V715C259.975 715 143.994 631.07 97.7655 512.63L125.712 501.722ZM458.775 136.338C450.172 127.537 449.709 115.394 454.009 106.578C458.477 97.4159 469.253 89.972 482.435 93.6536L474.365 122.548C475.411 122.84 477.039 122.814 478.606 122.013C479.983 121.309 480.672 120.345 480.974 119.727C481.508 118.631 481.587 116.758 480.228 115.368L458.775 136.338ZM119.091 508.323C120.595 509.523 122.46 509.282 123.536 508.617C124.137 508.245 125.038 507.45 125.603 505.997C126.245 504.349 126.104 502.726 125.712 501.722L97.7655 512.63C92.8044 499.92 99.0831 488.462 107.765 483.097C116.112 477.938 128.209 477.223 137.797 484.87L119.091 508.323Z" mask="url(#path-1-outside-1_207_551)"></path>
</svg>
